{"asset":{"version":"2.0","generator":"outshine board:1963"},"extensionsUsed":["KHR_materials_transmission","KHR_materials_ior"],"scene":0,"scenes":[{"nodes":[0]}],"nodes":[{"name":"vehicle","mesh":0}],"meshes":[{"name":"vehicle","primitives":[{"attributes":{"POSITION":0,"NORMAL":1},"indices":2,"material":0},{"attributes":{"POSITION":3,"NORMAL":4},"indices":5,"material":0},{"attributes":{"POSITION":6,"NORMAL":7},"indices":8,"material":0},{"attributes":{"POSITION":9,"NORMAL":10},"indices":11,"material":0},{"attributes":{"POSITION":12,"NORMAL":13},"indices":14,"material":1},{"attributes":{"POSITION":15,"NORMAL":16},"indices":17,"material":2},{"attributes":{"POSITION":18,"NORMAL":19},"indices":20,"material":2},{"attributes":{"POSITION":21,"NORMAL":22},"indices":23,"material":2},{"attributes":{"POSITION":24,"NORMAL":25},"indices":26,"material":2}]}],"materials":[{"name":"paint","pbrMetallicRoughness":{"baseColorFactor":[0.1,0.14,0.24,1.0],"metallicFactor":0.85,"roughnessFactor":0.26},"doubleSided":false},{"name":"glass","pbrMetallicRoughness":{"baseColorFactor":[0.92,0.94,0.95,1.0],"metallicFactor":0.0,"roughnessFactor":0.05},"extensions":{"KHR_materials_transmission":{"transmissionFactor":0.92},"KHR_materials_ior":{"ior":1.52}},"doubleSided":true},{"name":"tyre","pbrMetallicRoughness":{"baseColorFactor":[0.045,0.045,0.05,1.0],"metallicFactor":0.0,"roughnessFactor":0.92}}],"accessors":[{"bufferView":0,"byteOffset":0,"componentType":5126,"count":36,"type":"VEC3","min":[-0.9054999947547913,-0.032999999821186066,-2.299999952316284],"max":[0.9054999947547913,0.44699999690055847,2.299999952316284]},{"bufferView":1,"byteOffset":0,"componentType":5126,"count":36,"type":"VEC3"},{"bufferView":2,"byteOffset":0,"componentType":5125,"count":36,"type":"SCALAR"},{"bufferView":0,"byteOffset":432,"componentType":5126,"count":36,"type":"VEC3","min":[-0.8600000143051147,0.44699999690055847,-2.25],"max":[0.8600000143051147,0.5270000100135803,-0.9800000190734863]},{"bufferView":1,"byteOffset":432,"componentType":5126,"count":36,"type":"VEC3"},{"bufferView":2,"byteOffset":144,"componentType":5125,"count":36,"type":"SCALAR"},{"bufferView":0,"byteOffset":864,"componentType":5126,"count":36,"type":"VEC3","min":[-0.8600000143051147,0.44699999690055847,0.9200000166893005],"max":[0.8600000143051147,0.5270000100135803,2.25]},{"bufferView":1,"byteOffset":864,"componentType":5126,"count":36,"type":"VEC3"},{"bufferView":2,"byteOffset":288,"componentType":5125,"count":36,"type":"SCALAR"},{"bufferView":0,"byteOffset":1296,"componentType":5126,"count":36,"type":"VEC3","min":[-0.7400000095367432,1.0670000314712524,-0.6200000047683716],"max":[0.7400000095367432,1.1269999742507935,0.7200000286102295]},{"bufferView":1,"byteOffset":1296,"componentType":5126,"count":36,"type":"VEC3"},{"bufferView":2,"byteOffset":432,"componentType":5125,"count":36,"type":"SCALAR"},{"bufferView":0,"byteOffset":1728,"componentType":5126,"count":36,"type":"VEC3","min":[-0.7549999952316284,0.44699999690055847,-0.9800000190734863],"max":[0.7549999952316284,1.1069999933242798,0.9200000166893005]},{"bufferView":1,"byteOffset":1728,"componentType":5126,"count":36,"type":"VEC3"},{"bufferView":2,"byteOffset":576,"componentType":5125,"count":36,"type":"SCALAR"},{"bufferView":0,"byteOffset":2160,"componentType":5126,"count":200,"type":"VEC3","min":[-0.8914999961853027,-0.3330000042915344,-1.7380000352859497],"max":[-0.656499981880188,0.3330000042915344,-1.0720000267028809]},{"bufferView":1,"byteOffset":2160,"componentType":5126,"count":200,"type":"VEC3"},{"bufferView":2,"byteOffset":720,"componentType":5125,"count":240,"type":"SCALAR"},{"bufferView":0,"byteOffset":4560,"componentType":5126,"count":200,"type":"VEC3","min":[0.656499981880188,-0.3330000042915344,-1.7380000352859497],"max":[0.8914999961853027,0.3330000042915344,-1.0720000267028809]},{"bufferView":1,"byteOffset":4560,"componentType":5126,"count":200,"type":"VEC3"},{"bufferView":2,"byteOffset":1680,"componentType":5125,"count":240,"type":"SCALAR"},{"bufferView":0,"byteOffset":6960,"componentType":5126,"count":200,"type":"VEC3","min":[-0.8914999961853027,-0.3330000042915344,1.0720000267028809],"max":[-0.656499981880188,0.3330000042915344,1.7380000352859497]},{"bufferView":1,"byteOffset":6960,"componentType":5126,"count":200,"type":"VEC3"},{"bufferView":2,"byteOffset":2640,"componentType":5125,"count":240,"type":"SCALAR"},{"bufferView":0,"byteOffset":9360,"componentType":5126,"count":200,"type":"VEC3","min":[0.656499981880188,-0.3330000042915344,1.0720000267028809],"max":[0.8914999961853027,0.3330000042915344,1.7380000352859497]},{"bufferView":1,"byteOffset":9360,"componentType":5126,"count":200,"type":"VEC3"},{"bufferView":2,"byteOffset":3600,"componentType":5125,"count":240,"type":"SCALAR"}],"bufferViews":[{"buffer":0,"byteOffset":0,"byteLength":11760,"byteStride":12,"target":34962},{"buffer":0,"byteOffset":11760,"byteLength":11760,"byteStride":12,"target":34962},{"buffer":0,"byteOffset":23520,"byteLength":4560,"target":34963}],"buffers":[{"byteLength":28080,"uri":"data:application/octet-stream;base64,"}]}